<svg aria-hidden="true" style="width:0;height:0;position:absolute;overflow:hidden" xmlns="http://www.w3.org/2000/svg"><defs><symbol id="icon-github" viewBox="0 0 32 32"><path fill="currentColor" style="fill:currentColor" d="M32 16c0 8.837-7.163 16-16 16S0 24.837 0 16 7.163 0 16 0s16 7.163 16 16z"/><path fill="#fff" style="fill:var(--color2,#fff)" d="M16 6.59c-5.188.023-9.387 4.222-9.41 9.408V16c0 4.41 3.1 8.42 7.2 9.41V22.3c-.4.09-.78.09-1.2-.03-.55-.17-1-.54-1.34-1.1-.21-.36-.59-.75-.98-.73l-.1-1.1c.85-.07 1.6.53 2.03 1.26.2.33.42.52.71.61.28.08.58.04.93-.08.08-.7.4-.96.64-1.33-2.45-.36-3.42-1.66-3.81-2.69a4.228 4.228 0 0 1-.257-1.467 4.3 4.3 0 0 1 .933-2.682l-.007.009c.02-.02.05-.08.04-.12-.42-1.25.09-2.3.1-2.4.49.14.56-.15 2.1.78l.26.16c.1.06.07.03.18.02a7.764 7.764 0 0 1 1.974-.28h.006c.67 0 1.34.1 2 .29h.09l.07-.03c1.91-1.16 1.84-.78 2.36-.95.02.11.52 1.17.1 2.41-.05.17 1.66 1.74.71 4.26-.39 1.03-1.36 2.33-3.81 2.7.31.47.69.73.69 1.71v3.9c4.1-1 7.2-5 7.2-9.42-.023-5.188-4.222-9.387-9.408-9.41h-.002z"/></symbol><symbol id="icon-telegram" viewBox="0 0 33 32"><path fill="currentColor" style="fill:currentColor" d="M32.24 16c0 8.837-7.163 16-16 16s-16-7.163-16-16 7.163-16 16-16 16 7.163 16 16z"/><path fill="#fff" style="fill:var(--color2,#fff)" d="m13.1 18.38-.32 4.16c.46 0 .66-.18.9-.4l2.12-1.9 4.42 3.02c.8.42 1.38.2 1.6-.7l2.9-12.67c.25-1.11-.44-1.55-1.23-1.28L6.46 14.7c-1.16.42-1.14 1.02-.2 1.3l4.36 1.26 10.11-5.9c.48-.3.91-.14.55.16l-8.18 6.86z"/></symbol><symbol id="icon-facebook" viewBox="0 0 33 32"><path fill="currentColor" style="fill:currentColor" d="M16.47 32c8.837 0 16-7.163 16-16s-7.163-16-16-16c-8.836 0-16 7.163-16 16s7.164 16 16 16z"/><path fill="#fff" style="fill:var(--color2,#fff)" d="M20.916 15.981h-2.61V25.6h-3.955v-9.62h-1.88V12.6h1.88v-2.187c0-1.565.74-4.014 3.99-4.014l2.93.012v3.281h-2.126c-.348 0-.839.176-.839.922v1.99h2.956l-.346 3.376z"/></symbol></defs></svg>